<?xml version="1.0" encoding="UTF-8" standalone="no"?>
<!-- Created with Inkscape (http://www.inkscape.org/) -->

<svg
   width="1000"
   height="1000"
   viewBox="0 0 1000 1000"
   version="1.1"
   id="svg1"
   inkscape:version="1.4.3 (0d15f75, 2025-12-25)"
   sodipodi:docname="strapping_logo.svg"
   xmlns:inkscape="http://www.inkscape.org/namespaces/inkscape"
   xmlns:sodipodi="http://sodipodi.sourceforge.net/DTD/sodipodi-0.dtd"
   xmlns="http://www.w3.org/2000/svg"
   xmlns:svg="http://www.w3.org/2000/svg">
  <sodipodi:namedview
     id="namedview1"
     pagecolor="#ffffff"
     bordercolor="#000000"
     borderopacity="0.25"
     inkscape:showpageshadow="2"
     inkscape:pageopacity="0.0"
     inkscape:pagecheckerboard="0"
     inkscape:deskcolor="#d1d1d1"
     inkscape:document-units="mm"
     inkscape:zoom="0.48346764"
     inkscape:cx="334.04511"
     inkscape:cy="433.32786"
     inkscape:window-width="1449"
     inkscape:window-height="920"
     inkscape:window-x="0"
     inkscape:window-y="34"
     inkscape:window-maximized="0"
     inkscape:current-layer="layer1" />
  <defs
     id="defs1" />
  <g
     inkscape:label="Layer 1"
     inkscape:groupmode="layer"
     id="layer1">
    <path
       d="m 287.90273,803.77756 q -73.23705,0 -114.73804,-42.31474 -40.68725,-41.50099 -40.68725,-107.41434 v -67.54083 q 0,-34.17729 -8.9512,-55.33466 -8.13745,-21.97112 -25.226091,-31.73606 -17.088645,-9.76494 -42.31474,-9.76494 v -86.25697 q 25.226095,0 42.31474,-9.76494 17.088641,-9.76494 25.226091,-30.92231 8.9512,-21.97111 8.9512,-56.1484 v -67.54084 q 0,-65.91334 40.68725,-107.41434 41.50099,-42.314735 114.73804,-42.314735 h 48.01096 v 91.139435 q -54.52092,-1.62749 -79.74701,15.46116 -24.41235,16.2749 -24.41235,54.52091 v 63.47211 q 0,57.7759 -27.66733,91.13944 -27.66733,32.5498 -65.0996,39.05976 v 3.25498 q 38.24601,6.50996 65.0996,39.87351 27.66733,33.36354 27.66733,91.95318 v 62.65837 q 0,39.8735 24.41235,56.96215 25.22609,17.08864 79.74701,15.46115 v 89.51195 z"
       id="text1"
       style="font-size:813.745px;font-family:'Geist Mono';-inkscape-font-specification:'Geist Mono, @wght=600';font-variation-settings:'wght' 600;stroke-width:1.19202"
       transform="scale(0.89308604,1.1197129)"
       aria-label="{" />
    <path
       d="m 516.20998,783.28673 q -61.7551,0 -107.67555,-24.54369 Q 363.4057,734.19935 337.27855,689.86236 311.15139,644.73363 306.401,583.77027 l 99.75823,-5.54213 q 5.54212,38.79487 19.7933,64.92203 15.04291,25.33542 38.79487,38.79487 24.54369,12.66771 56.21297,12.66771 30.08581,0 50.67085,-7.91732 21.37676,-7.91732 32.46101,-23.75196 11.08425,-15.83464 11.08425,-38.00314 0,-23.75196 -11.08425,-41.17006 -11.08425,-17.41811 -39.5866,-32.46101 -28.50235,-15.04291 -81.5484,-29.29409 -57.0047,-15.04291 -93.42437,-34.83621 -36.41967,-19.7933 -53.83778,-49.08738 -17.4181,-30.08581 -17.4181,-75.21454 0,-50.67085 22.16849,-87.88225 22.96023,-38.00314 65.71376,-58.58817 43.54526,-20.58503 103.71689,-20.58503 59.3799,0 101.3417,22.96023 41.96179,22.16849 65.71375,64.13029 24.54369,41.17006 30.08582,98.17477 l -100.54997,4.75039 q -3.95866,-30.87755 -16.62637,-53.04604 -11.87598,-22.96023 -33.25274,-35.62794 -20.58503,-12.66772 -50.67085,-12.66772 -40.37833,0 -64.13029,20.58504 -23.75196,19.7933 -23.75196,52.25431 0,22.96023 10.29252,38.00313 11.08424,15.04291 37.2114,26.91889 26.12715,11.87598 73.63107,23.75196 65.71376,17.4181 103.7169,41.17006 38.79486,23.75196 55.42124,57.00471 16.62637,33.25274 16.62637,78.38147 0,48.29565 -24.54369,84.71532 -24.5437,36.41967 -68.88069,56.21297 -44.33699,19.7933 -105.30035,19.7933 z"
       id="text2"
       style="font-size:791.732px;font-family:'Geist Mono';-inkscape-font-specification:'Geist Mono, @wght=600';font-variation-settings:'wght' 600;stroke-width:8.24719"
       transform="scale(0.97910952,1.0213362)"
       aria-label="S" />
    <path
       d="m 831.81045,803.7778 h -48.01101 v -89.51205 q 55.33472,1.62749 79.7471,-15.46118 24.41238,-17.08866 24.41238,-56.96222 v -62.65844 q 0,-58.58971 26.85362,-91.95329 27.66736,-33.36359 65.91342,-39.87355 v -3.25499 q -37.43231,-6.50997 -65.09967,-39.0598 -27.66737,-33.36359 -27.66737,-91.13955 v -63.47219 q 0,-38.24606 -24.41238,-54.52098 -24.41238,-17.08866 -79.7471,-15.46117 V 89.308839 h 48.01101 q 74.05088,0 114.73818,42.314791 40.6873,41.50104 40.6873,107.41447 v 67.54091 q 0,34.17733 8.13746,56.14848 8.95121,21.15739 26.03991,30.92234 17.0886,9.76495 42.3148,9.76495 v 86.25708 q -25.2262,0 -42.3148,9.76495 -17.0887,9.76495 -26.03991,31.73609 -8.13746,21.1574 -8.13746,55.33473 v 67.54091 q 0,65.91343 -40.6873,107.41447 -40.6873,42.31479 -114.73818,42.31479 z"
       id="text3"
       style="font-size:813.746px;font-family:'Geist Mono';-inkscape-font-specification:'Geist Mono, @wght=600';font-variation-settings:'wght' 600;stroke-width:8.47651"
       transform="scale(0.89308537,1.1197138)"
       aria-label="}" />
  </g>
</svg>
